<?xml version="1.0" encoding="utf-8"?>
<!-- Generator: Adobe Illustrator 23.1.1, SVG Export Plug-In . SVG Version: 6.00 Build 0)  -->
<svg version="1.1" xmlns="http://www.w3.org/2000/svg" xmlns:xlink="http://www.w3.org/1999/xlink" x="0px" y="0px"
	 viewBox="0 0 48 48" enable-background="new 0 0 48 48" xml:space="preserve">
<g id="Icon_Grid" display="none">
</g>
<g id="BG" display="none">
	<rect display="inline" fill="#FFFFFF" width="48" height="48"/>
</g>
<g id="Mengenal_Surabaya">
</g>
<g id="Layanan_Publik">
</g>
<g id="Informasi_Publik">
</g>
<g id="Home">
</g>
<g id="Tentang_Surabaya">
</g>
<g id="Pemerintahan">
</g>
<g id="Ada_Apa_di_Surabaya_x3F_">
</g>
<g id="Pengaduan_Masyarakat">
</g>
<g id="Perizinan">
</g>
<g id="Kesehatan">
</g>
<g id="Pendidikan">
</g>
<g id="Sosial_Masyarakat">
</g>
<g id="Kependudukan">
</g>
<g id="Pemberdayaan_Ekonomi">
</g>
<g id="Whistle_Blower_System">
</g>
<g id="JDIH">
</g>
<g id="PPID">
</g>
<g id="Open_Data">
</g>
<g id="Satu_Peta">
</g>
<g id="Foto">
</g>
<g id="Video">
</g>
<g id="Infografis">
</g>
<g id="Podcast">
</g>
<g id="Berita_Terbaru">
</g>
<g id="Siaran_Pers">
</g>
<g id="Visi__x26__Misi">
</g>
<g id="Struktur_Organisasi_Pemerintahan_Surabaya">
</g>
<g id="Perangkat_Daerah">
</g>
<g id="Profil_Walikota_Surabaya">
</g>
<g id="Alamat_Pemerintah_Kota_Surabaya">
</g>
<g id="Transportasi">
</g>
<g id="Bisnis__x26__Investasi">
	<g>
		<g>
			<g>
				<path fill="#FDD300" d="M16.367,26.714l3.09,1.441c-0.596-1.438-1.709-2.634-3.161-3.307c-1.848-0.865-4.046-0.763-5.797,0.233
					c0.363,1.995,1.682,3.721,3.546,4.591c1.431,0.666,3.078,0.749,4.559,0.291l-3.082-1.438c-0.5-0.233-0.717-0.828-0.483-1.329
					C15.272,26.697,15.868,26.483,16.367,26.714z"/>
				<path fill="#FDD300" d="M16.428,21.188c1.766,1.967,4.191,3.326,6.931,3.72v-0.896C20.714,23.865,18.304,22.824,16.428,21.188z"
					/>
				<polygon fill="#FDD300" points="30.769,45 31.476,39.348 17.48,39.348 18.187,45 				"/>
				<path fill="#FDD300" d="M35.521,12.521c0,5.896-4.454,10.765-10.172,11.437c0.001,0.015,0.009,0.027,0.009,0.042v7.542l1-0.467
					V25c0-0.015-0.008-0.027-0.009-0.042c5.718-0.672,10.172-5.54,10.172-11.437c0-3.431-1.516-6.507-3.902-8.619
					C34.419,6.936,35.521,9.6,35.521,12.521z"/>
				<path fill="#FDD300" d="M33.649,29.881l-3.084,1.438c1.481,0.458,3.128,0.376,4.561-0.291c1.863-0.87,3.182-2.596,3.545-4.591
					c-1.751-0.996-3.955-1.098-5.792-0.235c-1.455,0.675-2.569,1.871-3.165,3.308l3.09-1.441c0.501-0.233,1.096-0.017,1.329,0.483
					C34.366,29.053,34.149,29.647,33.649,29.881z"/>
				<path fill="#FDD300" d="M21.968,32.067l1.391,0.648v-0.533l-2.391-1.115c-1.282,0.772-2.732,1.199-4.251,1.199
					c-1.22,0-2.403-0.263-3.517-0.781c-0.654-0.305-1.255-0.693-1.796-1.144c0.761,0.89,1.702,1.633,2.796,2.144
					c1.113,0.518,2.297,0.781,3.517,0.781C19.235,33.267,20.685,32.84,21.968,32.067z"/>
				<path fill="#FDD300" d="M41.321,26.117c-0.19-0.133-0.393-0.242-0.591-0.358c0.015,0.085,0.02,0.173,0.012,0.262
					c-0.252,2.951-2.081,5.564-4.771,6.82c-1.114,0.519-2.297,0.781-3.518,0.781c-1.518,0-2.969-0.427-4.251-1.2l-2.771,1.293
					c-0.023,0.011-0.049,0.007-0.073,0.017v0.747h1.58l2.264-1.057c0.872,0.526,1.825,0.877,2.821,1.057h1.542
					c0.161,0,0.307,0.046,0.441,0.113c1.025-0.067,2.02-0.312,2.964-0.751c2.69-1.256,4.52-3.869,4.771-6.82
					C41.772,26.666,41.612,26.322,41.321,26.117z"/>
				<path fill="#FDD300" d="M34.565,35.479v2.869c0,0.553-0.447,1-1,1h-0.074l-0.847,6.776C32.582,46.624,32.156,47,31.652,47
					H17.305c-0.003,0-0.005-0.002-0.008-0.002l0.016,0.126c0.063,0.5,0.488,0.876,0.992,0.876h14.348
					c0.504,0,0.93-0.376,0.992-0.876l0.847-6.776h0.074c0.553,0,1-0.447,1-1v-2.869C35.565,35.926,35.118,35.479,34.565,35.479z"/>
				<path fill="#FDD300" d="M22.687,29.662c-0.416-1.771-1.388-3.357-2.777-4.506c0.988,1.154,1.666,2.566,1.909,4.101
					L22.687,29.662z"/>
				<g>
					<path fill="#FDD300" d="M22.263,8.81c-0.354-0.291-1.146-0.353-1.851-0.32v1.622c0.692,0.058,1.496,0.004,1.851-0.285
						c0.097-0.078,0.194-0.199,0.194-0.513C22.457,9.01,22.358,8.889,22.263,8.81z"/>
					<path fill="#FDD300" d="M29.045,12.001c-0.354-0.291-1.143-0.355-1.851-0.32v1.622c0.692,0.057,1.496,0.004,1.851-0.285
						c0.096-0.078,0.194-0.2,0.194-0.514C29.239,12.201,29.141,12.08,29.045,12.001z"/>
					<path fill="#FDD300" d="M24,3c-5.25,0-9.522,4.272-9.522,9.521c0,5.251,4.272,9.522,9.522,9.522s9.521-4.271,9.521-9.522
						C33.521,7.272,29.25,3,24,3z M23.959,15.25c-0.133,0.06-0.272,0.088-0.408,0.088c-0.382,0-0.747-0.22-0.913-0.591l-1.185-2.64
						c-0.369,0.031-0.726,0.03-1.041,0.009v2.222c0,0.553-0.447,1-1,1s-1-0.447-1-1V7.606c0-0.476,0.335-0.886,0.802-0.981
						c0.29-0.059,2.877-0.54,4.313,0.636c0.608,0.497,0.93,1.207,0.93,2.053c0,0.857-0.324,1.573-0.938,2.069
						c-0.049,0.039-0.102,0.069-0.153,0.104l1.096,2.441C24.688,14.433,24.463,15.024,23.959,15.25z M30.301,14.573
						c-0.881,0.713-2.177,0.796-3.107,0.734v2.224c0,0.553-0.447,1-1,1c-0.553,0-1-0.447-1-1v-6.734
						c0-0.476,0.335-0.886,0.802-0.981c0.291-0.059,2.877-0.54,4.315,0.636c0.608,0.497,0.929,1.206,0.929,2.052
						C31.239,13.361,30.915,14.077,30.301,14.573z"/>
				</g>
			</g>
			<path fill="#FDD300" d="M47,12.521c0,0.553-0.447,1-1,1h-7.652c0,0.553,0.447,1,1,1H47c0.553,0,1-0.447,1-1
				S47.553,12.521,47,12.521z"/>
			<path fill="#FDD300" d="M10.652,12.521c0,0.553-0.447,1-1,1H2c0,0.553,0.447,1,1,1h7.652c0.553,0,1-0.447,1-1
				S11.205,12.521,10.652,12.521z"/>
			<path fill="#FDD300" d="M43.317,19.126L42.971,19c0.009,0.135-0.007,0.272-0.056,0.407c-0.147,0.406-0.531,0.658-0.939,0.658
				c-0.113,0-0.229-0.019-0.342-0.06l-4.147-1.511c0.025,0.383,0.269,0.734,0.653,0.874l4.493,1.637
				c0.112,0.041,0.228,0.06,0.342,0.06c0.408,0,0.792-0.252,0.939-0.658C44.104,19.889,43.837,19.315,43.317,19.126z"/>
			<path fill="#FDD300" d="M11.859,7.676L11.513,7.55c0.009,0.135-0.007,0.273-0.056,0.407c-0.147,0.406-0.531,0.658-0.939,0.658
				c-0.113,0-0.229-0.019-0.342-0.061L6.028,7.044c0.025,0.383,0.269,0.734,0.653,0.874l4.494,1.637
				c0.112,0.041,0.229,0.061,0.342,0.061c0.408,0,0.792-0.252,0.939-0.658C12.646,8.439,12.379,7.864,11.859,7.676z"/>
			<path fill="#FDD300" d="M43.915,6.637c-0.148-0.408-0.536-0.651-0.946-0.648c-0.004,0.404-0.248,0.783-0.651,0.93l-4.493,1.636
				c-0.109,0.04-0.223,0.058-0.333,0.06c-0.001,0.113,0.011,0.229,0.052,0.343c0.147,0.406,0.531,0.658,0.939,0.658
				c0.113,0,0.229-0.02,0.342-0.061l4.493-1.636C43.837,7.729,44.104,7.155,43.915,6.637z"/>
			<path fill="#FDD300" d="M12.457,18.087c-0.148-0.408-0.536-0.651-0.946-0.648c-0.004,0.404-0.248,0.783-0.651,0.93l-4.494,1.636
				c-0.109,0.04-0.223,0.059-0.333,0.059c-0.001,0.114,0.011,0.23,0.052,0.344c0.147,0.406,0.531,0.658,0.939,0.658
				c0.113,0,0.23-0.02,0.342-0.061l4.494-1.636C12.379,19.18,12.646,18.605,12.457,18.087z"/>
		</g>
		<g>
			<path fill="#004AE1" d="M39.321,24.117c-2.404-1.69-5.623-1.98-8.287-0.728c-2.514,1.164-4.255,3.517-4.683,6.223l-1.993,0.93V23
				c0-0.015-0.008-0.027-0.009-0.042c5.718-0.672,10.172-5.54,10.172-11.437C34.521,5.169,29.352,0,23,0
				c-6.353,0-11.522,5.169-11.522,11.521c0,6.137,4.826,11.154,10.88,11.49v5.964l-1.539-0.718c-0.429-2.707-2.17-5.059-4.679-6.222
				c-2.676-1.256-5.886-0.965-8.292,0.726c-0.291,0.205-0.451,0.549-0.421,0.903c0.252,2.951,2.081,5.564,4.772,6.82
				c1.113,0.519,2.297,0.781,3.517,0.781c1.519,0,2.969-0.427,4.251-1.199l2.391,1.115v2.296h-7.967c-0.553,0-1,0.447-1,1v2.869
				c0,0.553,0.447,1,1,1h0.073l0.848,6.776c0.063,0.5,0.488,0.876,0.992,0.876h14.348c0.504,0,0.93-0.376,0.992-0.876l0.847-6.776
				h0.074c0.553,0,1-0.447,1-1v-2.869c0-0.553-0.447-1-1-1h-8.207v-0.747c0.024-0.01,0.05-0.006,0.073-0.017l2.771-1.293
				c1.282,0.773,2.733,1.2,4.251,1.2c1.221,0,2.403-0.263,3.518-0.781c2.69-1.256,4.52-3.869,4.771-6.82
				C39.772,24.666,39.612,24.322,39.321,24.117z M13.045,28.673c-1.864-0.87-3.183-2.596-3.546-4.591
				c1.751-0.996,3.949-1.099,5.797-0.233c1.452,0.673,2.565,1.869,3.161,3.307l-3.09-1.441c-0.499-0.23-1.095-0.017-1.329,0.483
				c-0.233,0.501-0.017,1.096,0.483,1.329l3.082,1.438C16.123,29.422,14.476,29.339,13.045,28.673z M29.769,44H17.187l-0.707-5.652
				h13.995L29.769,44z M31.565,36.348H15.392v-0.869h16.174V36.348z M13.478,11.521C13.478,6.272,17.75,2,23,2
				s9.521,4.272,9.521,9.521c0,5.251-4.271,9.522-9.521,9.522S13.478,16.772,13.478,11.521z M34.126,30.028
				c-1.433,0.667-3.079,0.749-4.561,0.291l3.084-1.438c0.5-0.233,0.717-0.828,0.483-1.329c-0.233-0.5-0.828-0.716-1.329-0.483
				l-3.09,1.441c0.596-1.437,1.71-2.633,3.165-3.308c1.837-0.862,4.041-0.761,5.792,0.235
				C37.308,27.433,35.989,29.158,34.126,30.028z"/>
			<path fill="#004AE1" d="M25.193,17.531c0.553,0,1-0.447,1-1v-2.224c0.931,0.061,2.226-0.021,3.107-0.734
				c0.614-0.496,0.939-1.212,0.939-2.069c0-0.846-0.321-1.555-0.929-2.052c-1.438-1.176-4.024-0.694-4.315-0.636
				c-0.467,0.095-0.802,0.505-0.802,0.981v6.734C24.193,17.084,24.641,17.531,25.193,17.531z M26.193,10.681
				c0.708-0.034,1.498,0.029,1.851,0.32c0.096,0.079,0.194,0.2,0.194,0.503c0,0.314-0.099,0.436-0.194,0.514
				c-0.355,0.289-1.159,0.342-1.851,0.285V10.681z"/>
			<path fill="#004AE1" d="M23.462,12.929l-1.096-2.441c0.051-0.035,0.104-0.065,0.153-0.104c0.613-0.496,0.938-1.212,0.938-2.069
				c0-0.846-0.321-1.556-0.93-2.053c-1.437-1.176-4.023-0.694-4.313-0.636c-0.467,0.095-0.802,0.505-0.802,0.981v6.732
				c0,0.553,0.447,1,1,1s1-0.447,1-1v-2.222c0.314,0.021,0.672,0.022,1.041-0.009l1.185,2.64c0.166,0.371,0.531,0.591,0.913,0.591
				c0.137,0,0.275-0.028,0.408-0.088C23.463,14.024,23.688,13.433,23.462,12.929z M19.412,9.111V7.489
				c0.704-0.033,1.497,0.029,1.851,0.32c0.096,0.079,0.194,0.2,0.194,0.504c0,0.313-0.098,0.434-0.194,0.513
				C20.908,9.115,20.104,9.169,19.412,9.111z"/>
			<path fill="#004AE1" d="M45,10.521h-7.652c-0.553,0-1,0.447-1,1s0.447,1,1,1H45c0.553,0,1-0.447,1-1S45.553,10.521,45,10.521z"/>
			<path fill="#004AE1" d="M9.652,11.521c0-0.553-0.447-1-1-1H1c-0.553,0-1,0.447-1,1s0.447,1,1,1h7.652
				C9.205,12.521,9.652,12.074,9.652,11.521z"/>
			<path fill="#004AE1" d="M41.317,17.126l-4.493-1.637c-0.517-0.189-1.093,0.079-1.281,0.598c-0.19,0.519,0.078,1.093,0.598,1.281
				l4.493,1.637c0.112,0.041,0.228,0.06,0.342,0.06c0.408,0,0.792-0.252,0.939-0.658C42.104,17.889,41.837,17.315,41.317,17.126z"/>
			<path fill="#004AE1" d="M4.682,5.918l4.494,1.637c0.112,0.041,0.229,0.061,0.342,0.061c0.408,0,0.792-0.252,0.939-0.658
				c0.189-0.518-0.078-1.093-0.598-1.281L5.365,4.039C4.85,3.85,4.272,4.118,4.084,4.637C3.894,5.155,4.162,5.729,4.682,5.918z"/>
			<path fill="#004AE1" d="M36.482,7.614c0.113,0,0.229-0.02,0.342-0.061l4.493-1.636c0.52-0.189,0.787-0.763,0.598-1.281
				c-0.188-0.519-0.765-0.787-1.281-0.598l-4.493,1.636c-0.52,0.188-0.787,0.763-0.598,1.281C35.69,7.362,36.074,7.614,36.482,7.614
				z"/>
			<path fill="#004AE1" d="M10.457,16.087c-0.188-0.519-0.764-0.787-1.281-0.598l-4.494,1.636c-0.519,0.188-0.787,0.763-0.598,1.281
				c0.147,0.406,0.531,0.658,0.939,0.658c0.113,0,0.229-0.02,0.342-0.061l4.494-1.636C10.379,17.18,10.646,16.605,10.457,16.087z"/>
		</g>
	</g>
</g>
<g id="Akomodasi">
</g>
<g id="Wisata">
</g>
<g id="Media_Center">
</g>
<g id="SSW_Alfa">
</g>
<g id="EHealth">
</g>
<g id="Lawan_Covid">
</g>
<g id="Wadul_Sertifikat_Vaksin">
</g>
<g id="Profil_Sekolah">
</g>
<g id="Rapor_Online">
</g>
<g id="Sistem_Informasi_Aplikasi_Guru">
</g>
<g id="EPemuktakhiran_Data">
</g>
<g id="Klampid">
</g>
<g id="EPeken_Surabaya">
</g>
<g id="Username">
</g>
<g id="Password_1_">
</g>
<g id="Pencarian">
</g>
<g id="Share">
</g>
<g id="Lihat_Semua">
</g>
<g id="User">
</g>
<g id="Contact">
</g>
<g id="Location">
</g>
<g id="Play_Podcast">
</g>
<g id="Previous_Blue">
</g>
<g id="Next">
</g>
<g id="Navigasi_Previous">
</g>
<g id="Navigasi_Next">
</g>
<g id="Play_Video">
</g>
<g id="Facebook_1_">
</g>
<g id="Twitter">
</g>
<g id="Instagram_1_">
</g>
<g id="Youtube">
</g>
</svg>
