<?xml version="1.0" encoding="utf-8"?>
<!-- Generator: Adobe Illustrator 23.1.1, SVG Export Plug-In . SVG Version: 6.00 Build 0)  -->
<svg version="1.1" xmlns="http://www.w3.org/2000/svg" xmlns:xlink="http://www.w3.org/1999/xlink" x="0px" y="0px"
	 viewBox="0 0 48 48" enable-background="new 0 0 48 48" xml:space="preserve">
<g id="Icon_Grid" display="none">
</g>
<g id="BG" display="none">
	<rect display="inline" fill="#FFFFFF" width="48" height="48"/>
</g>
<g id="Mengenal_Surabaya">
</g>
<g id="Layanan_Publik">
</g>
<g id="Informasi_Publik">
</g>
<g id="Home">
</g>
<g id="Tentang_Surabaya">
</g>
<g id="Pemerintahan">
</g>
<g id="Ada_Apa_di_Surabaya_x3F_">
</g>
<g id="Pengaduan_Masyarakat">
</g>
<g id="Perizinan">
</g>
<g id="Kesehatan">
</g>
<g id="Pendidikan">
</g>
<g id="Sosial_Masyarakat">
</g>
<g id="Kependudukan">
</g>
<g id="Pemberdayaan_Ekonomi">
</g>
<g id="Whistle_Blower_System">
</g>
<g id="JDIH">
</g>
<g id="PPID">
</g>
<g id="Open_Data">
</g>
<g id="Satu_Peta">
</g>
<g id="Foto">
</g>
<g id="Video">
</g>
<g id="Infografis">
</g>
<g id="Podcast">
</g>
<g id="Berita_Terbaru">
</g>
<g id="Siaran_Pers">
</g>
<g id="Visi__x26__Misi">
</g>
<g id="Struktur_Organisasi_Pemerintahan_Surabaya">
</g>
<g id="Perangkat_Daerah">
</g>
<g id="Profil_Walikota_Surabaya">
</g>
<g id="Alamat_Pemerintah_Kota_Surabaya">
</g>
<g id="Transportasi">
	<g>
		<g>
			<path fill="#FDD300" d="M7.783,8.741v8.718v10.58c2.313,0.642,9.968,2.629,16.217,2.629c6.255,0,13.905-1.986,16.217-2.629
				v-10.58V8.741H7.783z"/>
			<path fill="#FDD300" d="M42.217,3.913v2.828h1V4.913c0-1.061-0.574-1.98-1.423-2.49C42.057,2.86,42.217,3.366,42.217,3.913z"/>
			<path fill="#FDD300" d="M31.738,40.237v-2.785c0-0.8-0.482-1.486-1.169-1.79c0.107,0.242,0.169,0.509,0.169,0.79v3.785H31.738z"
				/>
			<path fill="#FDD300" d="M39.306,3H8.695C8.201,3,7.783,3.418,7.783,3.913v2.828h32.434V3.913C40.217,3.418,39.8,3,39.306,3z"/>
			<path fill="#FDD300" d="M8.783,31.116C11.666,31.898,18.86,33.668,25,33.668c5.525,0,11.894-1.432,15.217-2.288v-1.264
				C37.334,30.898,30.14,32.668,24,32.668c-6.14,0-13.334-1.77-16.217-2.552v10.121h1V31.116z"/>
			<path fill="#FDD300" d="M46.869,7.916C46.95,8.115,47,8.327,47,8.552v8.907c0,0.998-0.878,1.81-1.957,1.81h-2.826v21.969
				c0,0.553-0.447,1-1,1h-1.869v2.827c0,1.079-0.878,1.957-1.957,1.957h-3.826c-0.28,0-0.545-0.062-0.786-0.168
				c0.304,0.687,0.989,1.168,1.786,1.168h3.826c1.079,0,1.957-0.878,1.957-1.957v-2.827h1.869c0.553,0,1-0.447,1-1V20.269h2.826
				c1.079,0,1.957-0.812,1.957-1.81V9.552C48,8.828,47.535,8.206,46.869,7.916z"/>
			<path fill="#FDD300" d="M31.609,42.237H16.391v2.827c0,1.079-0.877,1.957-1.955,1.957h-3.826c-0.281,0-0.547-0.062-0.788-0.169
				c0.304,0.688,0.99,1.169,1.788,1.169h3.826c1.078,0,1.955-0.878,1.955-1.957v-2.827h14.219V42.237z"/>
			<path fill="#FDD300" d="M5.783,19.269H2.957c-0.296,0-0.574-0.066-0.826-0.175c0.279,0.684,0.989,1.175,1.826,1.175h1.826V19.269
				z"/>
		</g>
		<g>
			<path fill="#004AE1" d="M44.043,5.741h-2.826V2.913C41.217,1.307,39.911,0,38.306,0H7.695C6.09,0,4.783,1.307,4.783,2.913v2.828
				H1.957C0.878,5.741,0,6.554,0,7.552v8.907c0,0.998,0.878,1.81,1.957,1.81h2.826v21.969c0,0.553,0.447,1,1,1h1.869v2.827
				c0,1.079,0.878,1.957,1.957,1.957h3.826c1.078,0,1.955-0.878,1.955-1.957v-2.827h15.219v2.827c0,1.079,0.877,1.957,1.955,1.957
				h3.826c1.079,0,1.957-0.878,1.957-1.957v-2.827h1.869c0.553,0,1-0.447,1-1V18.269h2.826c1.079,0,1.957-0.812,1.957-1.81V7.552
				C46,6.554,45.122,5.741,44.043,5.741z M6.783,16.459V7.741h32.434v8.718v10.58c-2.312,0.642-9.962,2.629-16.217,2.629
				c-6.249,0-13.903-1.986-16.217-2.629V16.459z M7.695,2h30.61c0.494,0,0.911,0.418,0.911,0.913v2.828H6.783V2.913
				C6.783,2.418,7.201,2,7.695,2z M2,16.262V7.741l2.783,0.006v8.522L2,16.262z M13.391,44.022l-3.738,0.042v-2.827h3.738V44.022z
				 M18.217,35.494l9.521-0.042v0.913h-9.514L18.217,35.494z M18.244,38.365h9.494v0.872h-9.486L18.244,38.365z M36.348,44.022
				l-3.738,0.042v-2.827h3.738V44.022z M37.348,39.237h-5.738h-1.871v-3.785c0-1.08-0.877-1.958-1.955-1.958h-9.566
				c-1.078,0-1.955,0.878-1.955,1.958v3.785h-1.871H8.652H6.783V29.116C9.666,29.898,16.86,31.668,23,31.668
				c6.14,0,13.334-1.77,16.217-2.552v10.121H37.348z M44,16.269l-2.783-0.007V7.741L44,7.747V16.269z"/>
			<path fill="#004AE1" d="M13.99,35.576l-3.826-2.552c-0.306-0.205-0.701-0.224-1.026-0.05c-0.325,0.174-0.528,0.513-0.528,0.882
				v2.552c0,0.553,0.447,1,1,1h3.826c0.441,0,0.829-0.288,0.957-0.71C14.52,36.276,14.357,35.82,13.99,35.576z"/>
			<path fill="#004AE1" d="M36.862,32.975c-0.324-0.174-0.721-0.155-1.026,0.05l-3.826,2.552c-0.367,0.244-0.53,0.7-0.402,1.122
				c0.128,0.422,0.517,0.71,0.957,0.71h3.826c0.553,0,1-0.447,1-1v-2.552C37.391,33.487,37.187,33.148,36.862,32.975z"/>
		</g>
	</g>
</g>
<g id="Bisnis__x26__Investasi">
</g>
<g id="Akomodasi">
</g>
<g id="Wisata">
</g>
<g id="Media_Center">
</g>
<g id="SSW_Alfa">
</g>
<g id="EHealth">
</g>
<g id="Lawan_Covid">
</g>
<g id="Wadul_Sertifikat_Vaksin">
</g>
<g id="Profil_Sekolah">
</g>
<g id="Rapor_Online">
</g>
<g id="Sistem_Informasi_Aplikasi_Guru">
</g>
<g id="EPemuktakhiran_Data">
</g>
<g id="Klampid">
</g>
<g id="EPeken_Surabaya">
</g>
<g id="Username">
</g>
<g id="Password_1_">
</g>
<g id="Pencarian">
</g>
<g id="Share">
</g>
<g id="Lihat_Semua">
</g>
<g id="User">
</g>
<g id="Contact">
</g>
<g id="Location">
</g>
<g id="Play_Podcast">
</g>
<g id="Previous_Blue">
</g>
<g id="Next">
</g>
<g id="Navigasi_Previous">
</g>
<g id="Navigasi_Next">
</g>
<g id="Play_Video">
</g>
<g id="Facebook_1_">
</g>
<g id="Twitter">
</g>
<g id="Instagram_1_">
</g>
<g id="Youtube">
</g>
</svg>
