<?xml version="1.0" encoding="utf-8"?>
<!-- Generator: Adobe Illustrator 23.1.1, SVG Export Plug-In . SVG Version: 6.00 Build 0)  -->
<svg version="1.1" xmlns="http://www.w3.org/2000/svg" xmlns:xlink="http://www.w3.org/1999/xlink" x="0px" y="0px"
	 viewBox="0 0 48 48" enable-background="new 0 0 48 48" xml:space="preserve">
<g id="Icon_Grid" display="none">
</g>
<g id="BG" display="none">
	<rect display="inline" fill="#FFFFFF" width="48" height="48"/>
</g>
<g id="Mengenal_Surabaya">
</g>
<g id="Layanan_Publik">
</g>
<g id="Informasi_Publik">
</g>
<g id="Home">
</g>
<g id="Tentang_Surabaya">
</g>
<g id="Pemerintahan">
</g>
<g id="Ada_Apa_di_Surabaya_x3F_">
</g>
<g id="Pengaduan_Masyarakat">
</g>
<g id="Perizinan">
</g>
<g id="Kesehatan">
</g>
<g id="Pendidikan">
</g>
<g id="Sosial_Masyarakat">
</g>
<g id="Kependudukan">
</g>
<g id="Pemberdayaan_Ekonomi">
</g>
<g id="Whistle_Blower_System">
</g>
<g id="JDIH">
</g>
<g id="PPID">
</g>
<g id="Open_Data">
</g>
<g id="Satu_Peta">
</g>
<g id="Foto">
</g>
<g id="Video">
</g>
<g id="Infografis">
</g>
<g id="Podcast">
</g>
<g id="Berita_Terbaru">
</g>
<g id="Siaran_Pers">
</g>
<g id="Visi__x26__Misi">
</g>
<g id="Struktur_Organisasi_Pemerintahan_Surabaya">
</g>
<g id="Perangkat_Daerah">
</g>
<g id="Profil_Walikota_Surabaya">
</g>
<g id="Alamat_Pemerintah_Kota_Surabaya">
</g>
<g id="Transportasi">
</g>
<g id="Bisnis__x26__Investasi">
</g>
<g id="Akomodasi">
</g>
<g id="Wisata">
	<g>
		<g>
			<g>
				<path fill="#FDD300" d="M16.349,3h-5.739c-0.504,0-0.914,0.409-0.914,0.912v0.914h1.018C10.759,4.365,11.136,4,11.609,4h5.653
					V3.912C17.263,3.409,16.852,3,16.349,3z"/>
				<path fill="#FDD300" d="M19.263,3.912v7.609h1V4.912c0-1.059-0.575-1.978-1.423-2.488C19.102,2.86,19.263,3.366,19.263,3.912z"
					/>
				<polygon fill="#FDD300" points="10.695,7.826 17.263,7.826 17.263,6.826 9.695,6.826 9.695,11.521 10.695,11.521 				"/>
				<path fill="#FDD300" d="M25.534,12.945c0.263,0.438,0.424,0.943,0.424,1.49v0.955c0,0.553-0.447,1-1,1c-0.553,0-1-0.447-1-1
					v-0.955c0-0.504-0.41-0.914-0.914-0.914H3.912C3.409,13.521,3,13.932,3,14.436v22.955c0,0.504,0.409,0.914,0.912,0.914h1.914
					h0.957h11.478c0.553,0,1,0.447,1,1s-0.447,1-1,1H8.738v0.912c0,1.079-0.877,1.957-1.955,1.957H5.826
					c-0.281,0-0.547-0.062-0.788-0.169c0.304,0.688,0.99,1.169,1.788,1.169h0.957c1.078,0,1.955-0.878,1.955-1.957v-0.912h9.523
					L20,39l1-21l5.958-1.609v-0.955C26.958,14.376,26.383,13.455,25.534,12.945z M13.897,17.153l-1.392,5.193
					c-0.093,0.345-0.362,0.614-0.707,0.707c-0.086,0.023-0.173,0.034-0.259,0.034c-0.262,0-0.517-0.103-0.707-0.293l-3.802-3.802
					c-0.253-0.253-0.352-0.621-0.259-0.966c0.093-0.345,0.362-0.614,0.707-0.707l5.193-1.392c0.348-0.095,0.714,0.006,0.966,0.259
					C13.892,16.44,13.99,16.809,13.897,17.153z"/>
				<path fill="#FDD300" d="M3.869,40.301c-0.531-0.008-1.022-0.169-1.449-0.426c0.333,0.555,0.839,0.986,1.449,1.223V40.301z"/>
				<polygon fill="#FDD300" points="6.738,40.305 5.826,40.305 5.869,41.217 6.738,41.176 				"/>
			</g>
			<g>
				<path fill="#FDD300" d="M37.391,5.869h-7.652c-0.503,0-0.912,0.41-0.912,0.914v0.912h1.018c0.047-0.461,0.423-0.826,0.895-0.826
					h7.566V6.783C38.305,6.279,37.894,5.869,37.391,5.869z"/>
				<polygon fill="#FDD300" points="25,45.043 25.869,45.002 25.869,44.131 24.957,44.131 				"/>
				<polygon fill="#FDD300" points="41.262,45.043 42.131,45.002 42.131,44.131 41.217,44.131 				"/>
				<path fill="#FDD300" d="M44.088,42.131c0.503,0,0.912-0.41,0.912-0.914V20.174c0-0.503-0.409-0.912-0.912-0.912H23.043
					c-0.503,0-0.912,0.409-0.912,0.912v21.043c0,0.504,0.409,0.914,0.912,0.914h1.914h0.955h15.305h0.957H44.088z M29.738,29.783
					c-2.134,0-3.869-1.736-3.869-3.871c0-2.134,1.735-3.869,3.869-3.869c2.135,0,3.871,1.735,3.871,3.869
					C33.609,28.047,31.873,29.783,29.738,29.783z M37.258,39.055c-0.195,0.195-0.451,0.293-0.707,0.293
					c-0.256,0-0.512-0.098-0.707-0.293l-2.029-2.029c-0.391-0.391-0.391-1.023,0-1.414l5.41-5.41c0.391-0.391,1.023-0.391,1.414,0
					l2.029,2.029c0.391,0.391,0.391,1.023,0,1.414L37.258,39.055z"/>
				<path fill="#FDD300" d="M23,44.127c-0.531-0.008-1.023-0.169-1.449-0.426c0.333,0.555,0.839,0.986,1.449,1.223V44.127z"/>
				<path fill="#FDD300" d="M46.577,18.685C46.84,19.122,47,19.628,47,20.174v21.043c0,1.592-1.284,2.886-2.869,2.91v0.916
					c0,1.079-0.878,1.957-1.957,1.957h-0.957c-0.28,0-0.545-0.062-0.786-0.168C40.734,47.519,41.42,48,42.217,48h0.957
					c1.079,0,1.957-0.878,1.957-1.957v-0.916C46.716,45.103,48,43.809,48,42.217V21.174C48,20.114,47.425,19.194,46.577,18.685z"/>
				<polygon fill="#FDD300" points="28.826,17.262 29.826,17.262 29.826,10.695 38.305,10.695 38.305,9.695 28.826,9.695 				"/>
				<path fill="#FDD300" d="M39.262,45.043v-0.912H27.869v0.912c0,1.079-0.878,1.957-1.957,1.957h-0.955
					c-0.281,0-0.547-0.062-0.788-0.169C24.473,47.519,25.159,48,25.957,48h0.955c1.079,0,1.957-0.878,1.957-1.957v-0.912H39.27
					C39.269,45.102,39.262,45.073,39.262,45.043z"/>
				<path fill="#FDD300" d="M40.305,6.783v10.479h1V7.783c0-1.06-0.575-1.98-1.424-2.49C40.144,5.731,40.305,6.236,40.305,6.783z"/>
			</g>
		</g>
		<g>
			<path fill="#004AE1" d="M17.262,37.305H5.783H4.826H2.912C2.409,37.305,2,36.895,2,36.391V13.436
				c0-0.504,0.409-0.914,0.912-0.914h19.132c0.504,0,0.914,0.41,0.914,0.914v0.955c0,0.553,0.447,1,1,1c0.553,0,1-0.447,1-1v-0.955
				c0-1.606-1.308-2.914-2.914-2.914h-3.781V2.912C18.263,1.307,16.955,0,15.349,0H9.609C8.003,0,6.695,1.307,6.695,2.912v7.609
				H2.912C1.307,10.521,0,11.829,0,13.436v22.955c0,1.592,1.284,2.886,2.869,2.91v0.916c0,1.079,0.878,1.957,1.957,1.957h0.957
				c1.078,0,1.955-0.878,1.955-1.957v-0.912h9.523c0.553,0,1-0.447,1-1S17.814,37.305,17.262,37.305z M9.609,2h5.739
				c0.504,0,0.914,0.409,0.914,0.912v0.914H8.695V2.912C8.695,2.409,9.105,2,9.609,2z M8.695,5.826h7.567v4.695H8.695V5.826z
				 M5.738,40.176l-0.869,0.041l-0.043-0.912h0.912V40.176z"/>
			<path fill="#004AE1" d="M11.673,14.929L6.479,16.32c-0.345,0.093-0.614,0.362-0.707,0.707c-0.093,0.345,0.006,0.713,0.259,0.966
				l3.802,3.802c0.19,0.19,0.445,0.293,0.707,0.293c0.086,0,0.173-0.011,0.259-0.034c0.345-0.093,0.614-0.362,0.707-0.707
				l1.392-5.193c0.093-0.345-0.006-0.713-0.259-0.966C12.387,14.935,12.02,14.834,11.673,14.929z M10.022,19.156L8.67,17.804
				l1.848-0.495L10.022,19.156z"/>
			<path fill="#004AE1" d="M43.088,16.262h-3.783V5.783c0-1.606-1.308-2.914-2.914-2.914h-7.652c-1.605,0-2.912,1.308-2.912,2.914
				v10.479h-3.783c-1.606,0-2.912,1.307-2.912,2.912v21.043c0,1.592,1.284,2.886,2.869,2.91v0.916C22,45.122,22.878,46,23.957,46
				h0.955c1.079,0,1.957-0.878,1.957-1.957v-0.912h11.393v0.912c0,1.079,0.877,1.957,1.955,1.957h0.957
				c1.079,0,1.957-0.878,1.957-1.957v-0.916C44.716,43.103,46,41.809,46,40.217V19.174C46,17.568,44.693,16.262,43.088,16.262z
				 M28.738,4.869h7.652c0.504,0,0.914,0.41,0.914,0.914v0.912h-9.478V5.783C27.826,5.279,28.235,4.869,28.738,4.869z M27.826,8.695
				h9.478v7.566h-9.478V8.695z M24.869,44.002L24,44.043l-0.043-0.912h0.912V44.002z M40.262,44.043l-0.045-0.912h0.914v0.871
				L40.262,44.043z M44,40.217c0,0.504-0.409,0.914-0.912,0.914h-1.914h-0.957H24.912h-0.955h-1.914
				c-0.503,0-0.912-0.41-0.912-0.914V19.174c0-0.503,0.409-0.912,0.912-0.912h21.045c0.503,0,0.912,0.409,0.912,0.912V40.217z"/>
			<path fill="#004AE1" d="M39.639,29.201c-0.391-0.391-1.023-0.391-1.414,0l-5.41,5.41c-0.391,0.391-0.391,1.023,0,1.414
				l2.029,2.029c0.195,0.195,0.451,0.293,0.707,0.293c0.256,0,0.512-0.098,0.707-0.293l5.41-5.41c0.391-0.391,0.391-1.023,0-1.414
				L39.639,29.201z M35.551,35.934l-0.615-0.615l3.996-3.996l0.615,0.615L35.551,35.934z"/>
			<path fill="#004AE1" d="M28.738,21.043c-2.134,0-3.869,1.735-3.869,3.869c0,2.135,1.735,3.871,3.869,3.871
				c2.135,0,3.871-1.736,3.871-3.871C32.609,22.778,30.873,21.043,28.738,21.043z M28.738,26.783c-1.03,0-1.869-0.84-1.869-1.871
				c0-1.03,0.839-1.869,1.869-1.869c1.031,0,1.871,0.839,1.871,1.869C30.609,25.943,29.769,26.783,28.738,26.783z"/>
		</g>
	</g>
</g>
<g id="Media_Center">
</g>
<g id="SSW_Alfa">
</g>
<g id="EHealth">
</g>
<g id="Lawan_Covid">
</g>
<g id="Wadul_Sertifikat_Vaksin">
</g>
<g id="Profil_Sekolah">
</g>
<g id="Rapor_Online">
</g>
<g id="Sistem_Informasi_Aplikasi_Guru">
</g>
<g id="EPemuktakhiran_Data">
</g>
<g id="Klampid">
</g>
<g id="EPeken_Surabaya">
</g>
<g id="Username">
</g>
<g id="Password_1_">
</g>
<g id="Pencarian">
</g>
<g id="Share">
</g>
<g id="Lihat_Semua">
</g>
<g id="User">
</g>
<g id="Contact">
</g>
<g id="Location">
</g>
<g id="Play_Podcast">
</g>
<g id="Previous_Blue">
</g>
<g id="Next">
</g>
<g id="Navigasi_Previous">
</g>
<g id="Navigasi_Next">
</g>
<g id="Play_Video">
</g>
<g id="Facebook_1_">
</g>
<g id="Twitter">
</g>
<g id="Instagram_1_">
</g>
<g id="Youtube">
</g>
</svg>
